<svg id="svg" version="1.1" xmlns="http://www.w3.org/2000/svg" xmlns:xlink="http://www.w3.org/1999/xlink" width="400" height="237.55102040816325" viewBox="0, 0, 400,237.55102040816325"><g id="svgg"><path id="path0" d="M41.063 0.416 C 40.844 0.645,40.541 0.954,40.390 1.102 C 40.238 1.251,39.863 1.626,39.557 1.934 C 39.251 2.243,38.862 2.624,38.692 2.781 C 38.523 2.938,38.253 3.206,38.093 3.375 C 37.934 3.545,37.666 3.820,37.499 3.986 C 37.332 4.152,36.688 4.794,36.067 5.412 C 35.447 6.030,34.778 6.674,34.582 6.842 C 34.385 7.011,34.225 7.256,34.225 7.387 C 34.225 7.518,34.733 7.135,35.354 6.535 C 35.974 5.935,37.641 4.326,39.057 2.960 C 40.472 1.593,41.783 0.475,41.970 0.475 C 42.156 0.475,43.927 2.053,45.905 3.981 C 57.916 15.689,56.770 14.615,56.997 14.371 C 57.087 14.274,57.020 14.146,56.850 14.085 C 56.680 14.024,56.008 13.424,55.358 12.751 C 54.708 12.078,54.099 11.450,54.004 11.355 C 53.910 11.261,53.535 10.886,53.172 10.523 C 52.809 10.160,52.405 9.756,52.275 9.626 C 52.144 9.495,51.906 9.249,51.746 9.080 C 51.586 8.910,51.317 8.642,51.147 8.485 C 50.751 8.118,49.874 7.241,49.506 6.844 C 49.349 6.675,49.082 6.405,48.912 6.245 C 48.742 6.086,48.482 5.833,48.333 5.684 C 48.184 5.535,47.810 5.161,47.501 4.852 C 47.193 4.544,46.833 4.184,46.702 4.053 C 46.572 3.922,45.915 3.266,45.243 2.594 C 44.572 1.922,43.930 1.275,43.817 1.156 C 42.694 -0.035,41.739 -0.291,41.063 0.416 M355.418 2.019 C 353.599 3.854,353.240 4.278,353.506 4.278 C 353.556 4.278,354.579 3.316,355.780 2.139 C 356.982 0.963,357.842 0.000,357.692 0.000 C 357.541 0.000,356.518 0.909,355.418 2.019 M359.596 1.210 C 359.596 1.442,363.138 4.971,371.385 12.953 C 372.870 14.391,374.237 15.695,374.422 15.851 C 374.607 16.007,374.808 16.275,374.869 16.445 C 374.930 16.616,375.061 16.680,375.160 16.588 C 375.311 16.448,374.754 15.769,373.262 14.274 C 373.131 14.143,372.100 13.112,370.971 11.983 C 369.842 10.854,368.797 9.808,368.648 9.659 C 361.283 2.251,359.596 0.677,359.596 1.210 M339.750 17.235 C 331.450 25.621,331.633 25.431,331.849 25.431 C 331.925 25.431,333.146 24.305,334.562 22.928 C 344.420 13.346,348.188 9.620,348.188 9.457 C 348.188 8.833,346.805 10.107,339.750 17.235 M21.975 19.089 C 17.918 23.165,14.516 26.634,14.415 26.797 C 14.025 27.430,14.528 27.022,16.465 25.134 C 17.571 24.055,21.057 20.660,24.211 17.588 C 27.365 14.516,29.946 11.922,29.946 11.824 C 29.947 11.209,28.576 12.458,21.975 19.089 M62.508 20.024 C 62.508 20.187,64.925 22.674,67.879 25.550 C 70.832 28.425,74.319 31.828,75.626 33.111 C 76.934 34.394,78.056 35.392,78.119 35.329 C 78.234 35.214,62.862 19.727,62.632 19.727 C 62.563 19.727,62.508 19.860,62.508 20.024 M380.273 21.586 C 380.273 21.694,382.904 24.341,386.118 27.469 C 389.333 30.596,392.869 34.049,393.975 35.142 C 395.082 36.235,396.041 37.074,396.108 37.007 C 396.266 36.850,380.828 21.390,380.513 21.390 C 380.381 21.390,380.273 21.479,380.273 21.586 M326.273 30.292 C 325.973 30.612,325.599 31.013,325.442 31.183 C 325.285 31.353,325.018 31.622,324.848 31.782 C 324.678 31.942,324.418 32.194,324.269 32.343 C 324.120 32.492,323.746 32.864,323.437 33.170 C 323.128 33.476,322.747 33.865,322.590 34.035 C 322.433 34.205,322.166 34.474,321.996 34.634 C 321.826 34.794,321.566 35.046,321.417 35.195 C 321.268 35.344,320.879 35.733,320.552 36.060 C 320.225 36.387,319.851 36.761,319.720 36.892 C 319.412 37.201,317.262 39.351,316.868 39.744 C 316.701 39.911,316.327 40.283,316.036 40.571 C 315.746 40.859,315.379 41.233,315.222 41.403 C 315.065 41.572,314.798 41.840,314.628 41.997 C 314.458 42.154,314.191 42.421,314.034 42.591 C 313.877 42.761,313.609 43.018,313.440 43.163 C 313.270 43.307,312.898 43.682,312.613 43.994 C 312.328 44.307,311.954 44.692,311.781 44.849 C 311.247 45.335,310.847 45.870,311.017 45.870 C 311.106 45.870,311.477 45.576,311.842 45.217 C 312.207 44.857,312.647 44.433,312.819 44.273 C 312.991 44.113,313.238 43.872,313.369 43.737 C 313.500 43.603,316.762 40.395,320.618 36.608 C 324.691 32.609,327.459 29.721,327.224 29.717 C 327.001 29.712,326.573 29.971,326.273 30.292 M4.296 36.326 C 0.556 40.116,-0.321 41.117,0.098 41.117 C 0.316 41.117,9.031 32.496,9.031 32.280 C 9.031 31.686,8.033 32.539,4.296 36.326 M83.185 40.371 C 83.185 40.484,86.183 43.505,89.848 47.085 C 99.069 56.094,98.871 55.907,98.871 55.639 C 98.871 55.508,98.310 54.857,97.623 54.194 C 96.937 53.531,96.298 52.911,96.203 52.816 C 96.109 52.722,95.467 52.080,94.777 51.390 C 94.088 50.700,93.417 50.029,93.286 49.898 C 93.155 49.768,92.528 49.141,91.893 48.505 C 91.257 47.870,90.630 47.243,90.499 47.112 C 90.369 46.981,89.727 46.340,89.073 45.686 C 88.420 45.032,87.778 44.391,87.647 44.260 C 87.517 44.129,86.892 43.502,86.259 42.867 C 85.626 42.231,84.970 41.592,84.800 41.446 C 84.631 41.300,84.335 40.953,84.142 40.674 C 83.796 40.171,83.185 39.978,83.185 40.371 M-0.000 42.049 C -0.000 42.169,0.425 42.677,0.943 43.178 C 1.462 43.678,2.024 44.224,2.191 44.391 C 2.359 44.558,3.016 45.215,3.651 45.850 C 4.287 46.486,4.914 47.113,5.044 47.243 C 5.175 47.374,5.810 48.028,6.455 48.696 C 7.100 49.364,7.723 49.911,7.838 49.911 C 7.954 49.911,8.117 50.125,8.200 50.386 C 8.344 50.840,9.031 51.073,9.031 50.668 C 9.031 50.452,0.355 41.830,0.138 41.830 C 0.062 41.830,-0.000 41.929,-0.000 42.049 M393.269 48.069 C 391.900 49.409,388.416 52.805,385.528 55.615 C 382.639 58.425,380.276 60.805,380.275 60.903 C 380.270 61.480,381.511 60.339,388.493 53.357 C 392.741 49.109,396.114 45.633,395.988 45.633 C 395.863 45.633,394.639 46.729,393.269 48.069 M305.361 50.807 C 305.009 51.164,304.596 51.577,304.443 51.726 C 304.217 51.947,303.078 53.083,301.551 54.611 C 301.244 54.918,300.195 55.968,299.888 56.275 C 299.757 56.406,299.115 57.047,298.461 57.701 C 297.808 58.354,297.179 58.981,297.065 59.094 C 294.952 61.175,290.196 66.073,290.196 66.168 C 290.196 66.483,290.906 65.981,291.035 65.575 C 291.114 65.326,291.276 65.122,291.395 65.122 C 291.514 65.122,292.827 63.919,294.313 62.448 C 295.798 60.977,299.170 57.678,301.805 55.115 C 304.440 52.553,306.595 50.387,306.595 50.303 C 306.595 49.943,305.955 50.205,305.361 50.807 M14.260 55.965 C 14.260 56.123,29.898 71.777,30.055 71.777 C 30.644 71.777,29.385 70.393,24.211 65.354 C 20.926 62.154,17.388 58.708,16.350 57.695 C 14.562 55.950,14.260 55.701,14.260 55.965 M104.575 61.314 C 104.575 61.526,106.755 63.705,116.443 73.176 C 120.153 76.804,121.562 77.807,118.322 74.515 C 116.260 72.420,116.240 72.400,115.270 71.438 C 114.944 71.114,114.548 70.710,114.390 70.540 C 114.233 70.371,113.966 70.101,113.796 69.941 C 113.627 69.781,113.366 69.529,113.217 69.380 C 113.068 69.231,112.694 68.859,112.385 68.553 C 112.077 68.247,111.696 67.858,111.538 67.688 C 111.381 67.519,111.114 67.249,110.944 67.089 C 110.775 66.929,110.514 66.677,110.365 66.528 C 110.016 66.179,108.984 65.147,108.635 64.798 C 108.487 64.649,108.234 64.389,108.074 64.219 C 107.914 64.049,107.645 63.782,107.475 63.625 C 107.305 63.468,106.931 63.104,106.643 62.816 C 106.356 62.528,105.991 62.154,105.834 61.984 C 105.071 61.160,104.575 60.896,104.575 61.314 M374.705 66.257 C 374.631 66.489,374.348 66.837,374.075 67.030 C 373.079 67.733,359.596 81.047,359.596 81.328 C 359.596 81.726,360.283 81.503,360.424 81.058 C 360.505 80.803,360.779 80.529,361.034 80.448 C 361.289 80.367,361.497 80.206,361.497 80.090 C 361.497 79.974,361.760 79.634,362.080 79.333 C 363.372 78.124,363.630 77.873,364.178 77.291 C 364.582 76.862,365.454 75.992,365.823 75.650 C 365.993 75.493,366.263 75.226,366.422 75.056 C 366.582 74.886,366.835 74.626,366.984 74.477 C 367.133 74.328,367.505 73.954,367.811 73.645 C 368.117 73.336,368.506 72.953,368.675 72.793 C 369.068 72.423,369.512 71.980,369.882 71.587 C 370.255 71.190,371.131 70.315,371.527 69.941 C 371.697 69.781,371.958 69.529,372.107 69.380 C 372.255 69.231,372.630 68.859,372.938 68.554 C 374.174 67.331,375.282 66.114,375.282 65.978 C 375.282 65.649,374.828 65.868,374.705 66.257 M277.615 78.155 C 273.376 82.425,269.861 86.063,269.804 86.239 C 269.747 86.416,270.608 85.667,271.717 84.576 C 272.826 83.484,276.422 79.980,279.707 76.790 C 284.928 71.720,286.220 70.289,285.502 70.371 C 285.404 70.382,281.855 73.885,277.615 78.155 M34.855 76.117 C 35.105 76.526,35.476 76.976,35.840 77.314 C 36.010 77.471,36.666 78.120,37.299 78.755 C 38.668 80.130,38.763 80.225,39.486 80.942 C 39.795 81.248,40.176 81.637,40.333 81.807 C 40.490 81.976,40.758 82.246,40.927 82.406 C 41.097 82.566,41.358 82.818,41.507 82.967 C 41.655 83.116,42.030 83.488,42.338 83.794 C 42.647 84.100,43.028 84.489,43.185 84.659 C 43.342 84.828,43.610 85.098,43.779 85.258 C 43.949 85.418,44.195 85.655,44.326 85.786 C 44.456 85.917,44.831 86.289,45.157 86.613 C 45.484 86.937,45.880 87.341,46.037 87.511 C 46.194 87.681,46.462 87.950,46.632 88.110 C 46.801 88.270,47.077 88.537,47.244 88.704 C 47.411 88.871,47.785 89.243,48.075 89.531 C 48.366 89.819,48.732 90.193,48.889 90.363 C 49.047 90.533,49.314 90.800,49.484 90.957 C 49.653 91.114,49.921 91.382,50.078 91.551 C 50.784 92.314,51.575 92.727,51.575 92.333 C 51.575 92.266,49.581 90.260,47.145 87.876 C 44.709 85.492,41.220 82.071,39.393 80.273 C 37.565 78.476,35.983 77.005,35.876 77.005 C 35.770 77.005,35.618 76.801,35.539 76.552 C 35.460 76.303,35.233 76.036,35.035 75.961 C 34.792 75.867,34.733 75.918,34.855 76.117 M125.728 82.178 C 125.728 82.380,139.132 95.477,140.550 96.659 C 140.737 96.815,140.940 97.083,141.001 97.254 C 141.062 97.424,141.188 97.493,141.282 97.406 C 141.478 97.225,126.349 81.996,125.974 81.996 C 125.838 81.996,125.728 82.078,125.728 82.178 M352.063 88.493 C 351.122 89.430,347.673 92.809,344.398 96.001 C 341.123 99.194,338.443 101.895,338.443 102.003 C 338.443 102.536,339.173 101.921,342.328 98.726 C 344.215 96.816,345.865 95.146,345.996 95.015 C 346.126 94.885,346.768 94.243,347.422 93.589 C 348.075 92.936,348.717 92.294,348.848 92.163 C 348.978 92.032,349.605 91.405,350.241 90.770 C 350.876 90.134,351.503 89.505,351.634 89.371 C 351.765 89.238,352.380 88.651,353.001 88.067 C 353.622 87.483,354.130 86.948,354.130 86.878 C 354.130 86.540,353.636 86.926,352.063 88.493 M264.045 91.297 C 263.853 91.576,263.557 91.924,263.387 92.070 C 263.218 92.216,262.950 92.474,262.793 92.644 C 262.636 92.813,262.369 93.081,262.199 93.238 C 262.029 93.395,261.640 93.776,261.334 94.085 C 260.710 94.714,260.747 94.677,259.114 96.310 C 258.461 96.963,257.819 97.605,257.688 97.736 C 254.390 101.034,254.800 100.625,254.070 101.349 C 253.743 101.673,253.347 102.077,253.190 102.246 C 253.033 102.416,252.766 102.686,252.596 102.845 C 252.426 103.005,252.181 103.243,252.050 103.374 C 251.919 103.505,251.545 103.877,251.218 104.201 C 250.891 104.525,250.495 104.929,250.338 105.098 C 250.181 105.268,249.914 105.536,249.744 105.693 C 249.206 106.191,248.817 106.714,248.984 106.714 C 249.073 106.714,249.425 106.441,249.766 106.107 C 262.281 93.859,265.003 91.158,265.003 90.991 C 265.003 90.601,264.390 90.797,264.045 91.297 M55.853 96.702 C 55.853 96.837,56.385 97.460,57.035 98.087 C 57.685 98.714,58.339 99.349,58.487 99.498 C 58.636 99.647,59.293 100.303,59.946 100.957 C 60.600 101.611,61.242 102.252,61.372 102.383 C 61.503 102.514,62.145 103.155,62.798 103.809 C 63.452 104.463,64.094 105.104,64.224 105.235 C 64.355 105.366,64.982 105.993,65.618 106.628 C 66.253 107.264,66.910 107.920,67.076 108.087 C 67.243 108.254,67.914 108.925,68.568 109.579 C 69.222 110.232,69.863 110.874,69.994 111.005 C 70.125 111.136,70.477 111.507,70.777 111.831 C 71.077 112.154,71.418 112.418,71.534 112.418 C 71.650 112.418,71.812 112.632,71.895 112.894 C 72.041 113.351,72.727 113.579,72.727 113.169 C 72.727 113.059,69.727 110.038,66.061 106.455 C 62.394 102.872,58.597 99.157,57.623 98.198 C 56.649 97.240,55.853 96.567,55.853 96.702 M153.060 109.085 C 161.299 117.162,161.895 117.737,162.267 117.966 C 162.776 118.279,162.357 117.533,161.815 117.159 C 161.540 116.970,161.195 116.676,161.050 116.507 C 160.904 116.337,160.646 116.070,160.476 115.913 C 160.306 115.755,160.039 115.488,159.882 115.318 C 159.725 115.149,159.329 114.745,159.002 114.421 C 158.313 113.738,158.421 113.845,156.842 112.267 C 156.171 111.595,155.514 110.939,155.384 110.808 C 155.253 110.677,154.611 110.035,153.958 109.382 C 153.304 108.728,152.677 108.101,152.564 107.989 C 152.452 107.876,151.795 107.219,151.105 106.530 C 150.416 105.840,149.745 105.169,149.614 105.038 C 149.483 104.907,148.863 104.268,148.236 103.618 C 147.609 102.968,146.914 102.438,146.691 102.440 C 146.459 102.443,149.172 105.274,153.060 109.085 M329.954 110.220 C 328.377 111.756,324.830 115.203,322.070 117.880 C 317.259 122.547,316.743 123.113,317.303 123.113 C 317.523 123.113,331.865 108.890,332.709 107.835 C 333.468 106.886,332.648 107.595,329.954 110.220 M243.204 111.779 C 242.606 112.370,242.376 112.599,241.539 113.435 C 241.213 113.762,240.838 114.136,240.707 114.267 C 240.577 114.397,239.935 115.039,239.281 115.692 C 238.628 116.346,237.971 117.002,237.822 117.150 C 233.536 121.411,227.689 127.380,227.689 127.495 C 227.689 127.717,228.063 127.375,231.701 123.827 C 233.511 122.062,237.038 118.623,239.540 116.186 C 243.593 112.235,244.513 111.195,243.910 111.244 C 243.812 111.252,243.494 111.493,243.204 111.779 M77.005 117.491 C 77.005 117.753,93.370 134.046,93.633 134.046 C 94.215 134.046,93.602 133.378,88.495 128.439 C 85.533 125.575,81.971 122.109,80.579 120.737 C 77.714 117.912,77.005 117.269,77.005 117.491 M167.796 123.330 C 167.796 123.538,173.145 128.884,179.030 134.558 C 183.051 138.435,183.464 138.802,183.786 138.784 C 183.946 138.775,183.838 138.653,183.547 138.512 C 183.255 138.371,182.954 138.058,182.877 137.815 C 182.800 137.572,182.642 137.374,182.526 137.374 C 182.410 137.374,182.040 137.080,181.704 136.720 C 181.367 136.361,181.015 135.989,180.920 135.895 C 180.826 135.800,180.184 135.158,179.495 134.468 C 178.805 133.779,178.134 133.108,178.003 132.977 C 177.872 132.846,177.245 132.219,176.610 131.584 C 175.974 130.948,175.347 130.321,175.216 130.191 C 175.086 130.060,174.711 129.686,174.384 129.359 C 174.058 129.032,173.668 128.643,173.520 128.494 C 173.371 128.345,173.118 128.085,172.958 127.915 C 172.799 127.745,172.529 127.478,172.359 127.321 C 171.990 126.979,171.118 126.109,170.714 125.680 C 169.663 124.564,168.087 123.113,167.925 123.113 C 167.854 123.113,167.796 123.211,167.796 123.330 M311.299 128.472 C 311.130 128.675,310.861 128.969,310.700 129.126 C 310.539 129.283,308.881 130.891,307.016 132.699 C 300.400 139.113,296.376 143.139,296.376 143.345 C 296.376 143.839,297.086 143.304,298.686 141.604 C 298.846 141.434,299.113 141.159,299.280 140.992 C 299.447 140.825,299.820 140.450,300.107 140.160 C 300.395 139.869,300.770 139.503,300.939 139.346 C 301.109 139.189,301.378 138.921,301.538 138.752 C 301.698 138.582,301.965 138.307,302.132 138.140 C 302.523 137.749,303.481 136.791,303.829 136.443 C 303.978 136.294,304.239 136.041,304.408 135.882 C 304.578 135.722,304.845 135.452,305.002 135.283 C 305.160 135.113,305.541 134.724,305.849 134.418 C 306.158 134.112,306.532 133.740,306.681 133.591 C 306.830 133.442,307.091 133.189,307.260 133.030 C 307.430 132.870,307.697 132.600,307.855 132.431 C 308.012 132.261,308.393 131.872,308.701 131.566 C 309.010 131.260,309.384 130.888,309.533 130.739 C 309.682 130.590,309.943 130.337,310.112 130.178 C 310.282 130.018,310.549 129.748,310.707 129.579 C 310.864 129.409,311.238 129.008,311.538 128.687 C 311.838 128.367,311.976 128.105,311.844 128.105 C 311.713 128.105,311.467 128.270,311.299 128.472 M214.989 139.590 C 210.684 143.926,207.117 147.614,207.063 147.784 C 207.008 147.954,208.032 147.045,209.338 145.764 C 210.644 144.483,214.345 140.877,217.562 137.750 C 220.779 134.624,223.411 131.977,223.411 131.868 C 223.411 131.229,222.057 132.470,214.989 139.590 M98.897 138.978 C 99.075 139.207,99.489 139.683,99.818 140.037 C 100.550 140.824,100.486 140.758,102.416 142.688 C 102.565 142.837,102.818 143.098,102.977 143.267 C 103.137 143.437,103.407 143.705,103.577 143.862 C 103.973 144.229,104.850 145.106,105.217 145.503 C 105.375 145.672,105.642 145.942,105.812 146.102 C 105.981 146.261,106.242 146.514,106.391 146.663 C 106.539 146.812,106.914 147.184,107.222 147.490 C 107.531 147.796,107.914 148.185,108.074 148.355 C 108.444 148.747,108.888 149.191,109.281 149.561 C 109.450 149.721,109.825 150.089,110.112 150.380 C 110.400 150.670,110.743 151.015,110.873 151.146 C 111.182 151.455,113.548 153.821,113.857 154.130 C 114.559 154.831,115.264 155.437,115.378 155.437 C 115.884 155.437,114.955 154.398,110.959 150.493 C 108.457 148.049,104.918 144.578,103.093 142.781 C 101.269 140.983,99.687 139.513,99.577 139.513 C 99.468 139.513,99.311 139.299,99.228 139.037 C 99.145 138.776,98.964 138.562,98.826 138.562 C 98.677 138.562,98.706 138.731,98.897 138.978 M188.473 143.739 C 188.473 143.842,190.994 146.382,194.076 149.384 C 197.158 152.386,199.727 154.890,199.786 154.947 C 199.918 155.077,202.496 152.554,202.496 152.296 C 202.496 151.896,201.806 152.136,201.664 152.585 C 201.581 152.846,201.418 153.060,201.302 153.060 C 201.186 153.060,200.824 153.327,200.497 153.654 C 200.170 153.981,199.840 154.248,199.764 154.248 C 199.688 154.248,197.228 151.842,194.299 148.901 C 189.465 144.049,188.473 143.170,188.473 143.739 M289.442 149.926 C 288.831 150.539,285.329 153.969,281.658 157.550 C 277.988 161.131,274.985 164.152,274.985 164.264 C 274.985 164.825,275.786 164.132,279.622 160.250 C 281.914 157.929,283.882 155.939,283.995 155.826 C 284.108 155.713,284.736 155.086,285.389 154.433 C 286.043 153.779,286.685 153.138,286.815 153.007 C 286.946 152.876,287.600 152.241,288.268 151.596 C 288.936 150.951,289.483 150.328,289.483 150.213 C 289.483 150.097,289.670 149.943,289.900 149.870 C 290.318 149.737,291.070 148.769,290.733 148.797 C 290.634 148.806,290.053 149.314,289.442 149.926 M119.786 159.670 C 119.786 159.808,120.000 159.988,120.261 160.071 C 120.523 160.154,120.737 160.317,120.737 160.433 C 120.737 160.548,121.284 161.171,121.952 161.816 C 122.620 162.461,123.274 163.096,123.404 163.227 C 123.535 163.357,124.177 163.999,124.830 164.653 C 125.484 165.306,126.126 165.948,126.256 166.079 C 126.387 166.209,127.029 166.851,127.682 167.505 C 128.336 168.158,128.978 168.800,129.108 168.931 C 129.239 169.062,129.628 169.451,129.973 169.796 C 130.318 170.141,130.707 170.530,130.838 170.660 C 130.969 170.791,131.581 171.403,132.198 172.020 C 132.816 172.638,133.457 173.280,133.624 173.447 C 133.791 173.613,134.441 174.282,135.068 174.932 C 135.695 175.582,136.390 176.111,136.613 176.107 C 136.847 176.103,134.064 173.200,130.006 169.215 C 120.198 159.584,119.786 159.199,119.786 159.670 M269.400 169.697 C 269.317 169.958,269.158 170.172,269.046 170.172 C 268.935 170.172,267.723 171.269,266.353 172.608 C 264.983 173.948,261.605 177.232,258.847 179.907 C 254.069 184.539,253.517 185.146,254.075 185.146 C 254.320 185.146,269.994 169.597,269.994 169.354 C 269.994 169.010,269.533 169.276,269.400 169.697 M149.112 188.570 C 156.858 196.315,158.051 197.418,158.051 196.831 C 158.051 196.722,155.420 194.075,152.205 190.948 C 148.989 187.822,145.299 184.225,144.005 182.956 C 142.711 181.686,141.427 180.526,141.152 180.379 C 140.877 180.232,144.459 183.918,149.112 188.570 M248.247 190.398 C 248.116 190.529,246.191 192.406,243.969 194.569 C 235.146 203.157,232.917 205.356,232.917 205.468 C 232.917 205.858,233.711 205.442,234.414 204.683 C 234.571 204.513,234.839 204.246,235.008 204.088 C 235.178 203.931,235.445 203.664,235.603 203.494 C 235.945 203.125,236.814 202.252,237.243 201.849 C 237.413 201.689,237.689 201.421,237.856 201.254 C 238.246 200.863,239.204 199.906,239.552 199.558 C 239.701 199.409,239.954 199.148,240.114 198.978 C 240.517 198.549,241.390 197.680,241.759 197.338 C 241.929 197.180,242.198 196.913,242.358 196.743 C 242.518 196.574,242.771 196.313,242.919 196.164 C 243.269 195.815,244.300 194.784,244.649 194.435 C 244.798 194.286,245.059 194.033,245.228 193.873 C 245.398 193.714,245.665 193.444,245.822 193.274 C 246.965 192.041,247.224 191.800,247.410 191.800 C 247.526 191.800,247.687 191.592,247.768 191.337 C 247.849 191.082,248.123 190.808,248.378 190.727 C 248.633 190.646,248.841 190.480,248.841 190.358 C 248.841 190.074,248.552 190.093,248.247 190.398 M162.476 201.651 C 162.554 201.854,162.708 202.020,162.819 202.020 C 162.930 202.020,163.281 202.299,163.599 202.641 C 163.917 202.982,164.299 203.383,164.448 203.532 C 164.597 203.681,164.850 203.942,165.010 204.111 C 165.169 204.281,165.439 204.548,165.609 204.705 C 165.778 204.863,166.167 205.244,166.473 205.552 C 167.098 206.182,167.061 206.145,168.693 207.777 C 169.347 208.431,169.988 209.073,170.119 209.204 C 170.250 209.334,170.877 209.961,171.512 210.597 C 172.148 211.232,172.804 211.889,172.971 212.056 C 173.138 212.222,173.809 212.894,174.463 213.547 C 175.116 214.201,175.729 214.813,175.823 214.907 C 175.918 215.002,176.289 215.354,176.649 215.691 C 177.008 216.027,177.302 216.397,177.302 216.513 C 177.302 216.629,177.511 216.790,177.766 216.871 C 178.020 216.952,178.295 217.226,178.376 217.481 C 178.533 217.976,179.204 218.129,179.204 217.670 C 179.204 217.519,177.153 215.406,174.647 212.976 C 172.140 210.545,168.882 207.380,167.406 205.942 C 165.929 204.504,164.585 203.199,164.417 203.042 C 164.249 202.885,163.983 202.617,163.826 202.448 C 163.067 201.628,162.292 201.171,162.476 201.651 M226.221 211.961 C 225.610 212.572,222.107 216.005,218.437 219.590 C 214.767 223.175,211.765 226.197,211.765 226.304 C 211.765 226.764,212.328 226.426,213.319 225.371 C 213.903 224.750,214.490 224.135,214.624 224.005 C 214.758 223.874,215.402 223.232,216.055 222.579 C 216.709 221.925,217.351 221.283,217.482 221.153 C 217.793 220.843,224.464 214.171,224.817 213.818 C 224.965 213.669,225.619 213.034,226.269 212.407 C 226.919 211.780,227.451 211.165,227.451 211.040 C 227.451 210.727,227.464 210.717,226.221 211.961 M183.482 222.108 C 183.482 222.175,183.883 222.604,184.373 223.060 C 184.863 223.516,185.357 223.984,185.469 224.099 C 186.119 224.764,186.826 225.467,187.095 225.716 C 187.265 225.874,187.534 226.141,187.694 226.311 C 187.854 226.480,188.106 226.741,188.255 226.890 C 188.404 227.039,188.776 227.413,189.082 227.722 C 189.388 228.030,189.777 228.411,189.947 228.569 C 190.117 228.726,190.386 228.993,190.546 229.163 C 190.706 229.332,190.958 229.593,191.107 229.742 C 191.256 229.891,191.645 230.280,191.972 230.607 C 192.299 230.933,192.673 231.308,192.804 231.438 C 192.935 231.569,193.591 232.225,194.263 232.897 C 194.935 233.569,195.562 234.196,195.656 234.290 C 199.201 237.835,199.090 237.736,199.408 237.631 C 199.557 237.581,196.703 234.633,193.066 231.080 C 183.457 221.694,183.482 221.717,183.482 222.108 M206.001 231.781 C 205.772 232.067,205.585 232.393,205.585 232.504 C 205.585 232.616,205.505 232.665,205.407 232.614 C 205.309 232.562,204.058 233.679,202.628 235.095 C 201.197 236.512,200.156 237.671,200.314 237.671 C 200.591 237.671,206.774 231.657,206.774 231.387 C 206.774 231.095,206.395 231.288,206.001 231.781 " stroke="none" fill="#f43f5e" fill-rule="evenodd"></path><path id="path1" d="M356.704 1.610 C 354.098 4.248,324.467 33.370,320.618 37.077 C 319.638 38.021,315.996 41.589,312.526 45.006 C 303.504 53.889,283.358 73.649,282.234 74.717 C 281.711 75.214,276.471 80.358,270.588 86.148 C 264.706 91.939,259.096 97.441,258.121 98.375 C 257.146 99.309,253.503 102.877,250.025 106.305 C 236.968 119.172,220.713 135.130,220.284 135.504 C 220.038 135.717,215.452 140.209,210.091 145.486 C 204.729 150.763,200.182 155.115,199.985 155.159 C 199.632 155.236,197.486 153.188,184.910 140.779 C 181.576 137.488,177.671 133.654,176.233 132.258 C 174.795 130.862,168.913 125.095,163.161 119.442 C 157.409 113.789,152.169 108.654,151.515 108.031 C 149.903 106.493,129.274 86.245,121.331 78.403 C 117.802 74.919,113.828 71.014,112.501 69.724 C 111.175 68.435,105.951 63.316,100.895 58.348 C 95.838 53.381,90.720 48.365,89.522 47.201 C 85.652 43.441,64.707 22.889,58.467 16.729 C 48.046 6.440,42.284 0.835,42.039 0.748 C 41.910 0.702,39.697 2.756,37.123 5.312 C 34.548 7.868,31.266 11.100,29.828 12.493 C 28.390 13.887,22.347 19.806,16.399 25.647 C 10.452 31.489,4.375 37.436,2.896 38.865 L 0.207 41.461 2.539 43.699 C 3.822 44.930,9.957 50.943,16.171 57.062 C 22.385 63.181,27.691 68.380,27.961 68.615 C 28.404 69.001,39.728 80.121,58.805 98.902 C 62.606 102.645,66.358 106.325,67.142 107.079 C 69.065 108.930,89.926 129.401,97.326 136.698 C 100.594 139.921,104.712 143.967,106.477 145.690 C 108.241 147.414,113.898 152.959,119.048 158.012 C 124.198 163.066,129.123 167.897,129.993 168.746 C 130.864 169.596,136.704 175.335,142.971 181.500 C 149.239 187.664,154.742 193.059,155.199 193.489 C 156.180 194.409,175.822 213.689,185.722 223.449 C 193.934 231.544,199.622 237.051,199.870 237.144 C 199.969 237.182,201.492 235.791,203.255 234.055 C 205.018 232.318,209.187 228.223,212.520 224.955 C 215.852 221.687,223.103 214.575,228.631 209.150 C 234.160 203.725,239.819 198.178,241.207 196.823 C 242.596 195.468,246.465 191.671,249.806 188.386 C 267.380 171.104,278.271 160.409,279.468 159.259 C 280.205 158.550,285.514 153.350,291.266 147.703 C 297.017 142.056,302.975 136.218,304.505 134.731 C 306.035 133.243,309.887 129.459,313.065 126.322 C 320.749 118.737,341.351 98.513,342.801 97.132 C 343.432 96.530,348.513 91.554,354.090 86.073 C 359.667 80.592,365.407 74.962,366.845 73.561 C 368.283 72.161,372.190 68.326,375.527 65.038 C 378.863 61.751,385.628 55.107,390.559 50.275 C 395.490 45.443,399.523 41.379,399.522 41.244 C 399.520 41.109,396.074 37.629,391.863 33.512 C 387.653 29.394,381.264 23.126,377.666 19.583 C 374.067 16.041,369.947 11.994,368.509 10.590 C 367.071 9.187,364.165 6.337,362.052 4.257 C 357.647 -0.079,358.135 0.162,356.704 1.610 " stroke="none" fill="#f43f5e" fill-rule="evenodd"></path><path id="path2" d="M44.444 2.971 C 45.550 4.082,46.508 4.991,46.573 4.991 C 46.638 4.991,45.787 4.082,44.682 2.971 C 43.577 1.860,42.619 0.951,42.554 0.951 C 42.488 0.951,43.339 1.860,44.444 2.971 M363.280 5.466 C 364.844 7.035,366.178 8.318,366.243 8.318 C 366.309 8.318,365.082 7.035,363.518 5.466 C 361.953 3.898,360.619 2.614,360.554 2.614 C 360.489 2.614,361.715 3.898,363.280 5.466 M35.467 6.693 C 33.601 8.539,32.109 10.084,32.151 10.127 C 32.193 10.169,33.772 8.656,35.659 6.765 C 37.546 4.874,39.039 3.329,38.975 3.332 C 38.911 3.334,37.333 4.846,35.467 6.693 M351.040 6.982 C 349.667 8.332,347.904 10.121,347.121 10.958 C 346.338 11.794,347.487 10.714,349.676 8.559 C 351.864 6.403,353.654 4.612,353.654 4.578 C 353.654 4.427,353.398 4.662,351.040 6.982 M46.821 5.303 C 46.821 5.344,47.169 5.692,47.594 6.076 L 48.366 6.774 47.668 6.001 C 47.017 5.281,46.821 5.120,46.821 5.303 M31.170 10.839 C 30.994 11.038,30.896 11.249,30.954 11.306 C 31.011 11.364,31.253 11.197,31.490 10.934 C 31.727 10.672,31.825 10.462,31.706 10.467 C 31.588 10.472,31.347 10.639,31.170 10.839 M29.606 12.543 L 28.700 13.666 29.708 12.645 C 30.263 12.083,30.671 11.578,30.615 11.522 C 30.559 11.466,30.105 11.925,29.606 12.543 M59.772 18.006 C 62.254 20.521,64.336 22.579,64.398 22.579 C 64.616 22.579,60.615 18.531,56.922 15.016 C 56.007 14.145,57.289 15.490,59.772 18.006 M372.906 14.810 C 372.906 14.851,373.253 15.198,373.678 15.582 L 374.450 16.280 373.752 15.508 C 373.102 14.788,372.906 14.626,372.906 14.810 M23.644 18.360 L 21.034 21.034 23.708 18.424 C 25.178 16.988,26.381 15.785,26.381 15.750 C 26.381 15.578,26.069 15.877,23.644 18.360 M339.152 18.717 L 336.898 21.034 339.216 18.781 C 340.490 17.541,341.533 16.499,341.533 16.463 C 341.533 16.291,341.244 16.564,339.152 18.717 M374.569 16.409 C 374.569 16.473,376.303 18.235,378.423 20.324 C 380.542 22.414,381.750 23.535,381.106 22.816 C 380.462 22.097,379.450 21.038,378.857 20.461 C 378.263 19.885,377.056 18.711,376.173 17.853 C 375.291 16.995,374.569 16.345,374.569 16.409 M65.835 23.841 C 65.835 23.882,66.182 24.230,66.607 24.614 L 67.380 25.312 66.682 24.540 C 66.031 23.819,65.835 23.658,65.835 23.841 M333.250 24.386 C 333.073 24.586,332.976 24.796,333.034 24.854 C 333.091 24.911,333.332 24.744,333.570 24.482 C 333.807 24.219,333.904 24.009,333.786 24.014 C 333.668 24.019,333.427 24.186,333.250 24.386 M69.400 27.451 C 70.505 28.562,71.463 29.471,71.528 29.471 C 71.594 29.471,70.743 28.562,69.638 27.451 C 68.532 26.340,67.574 25.431,67.509 25.431 C 67.444 25.431,68.295 26.340,69.400 27.451 M387.998 29.709 C 389.431 31.147,390.657 32.323,390.723 32.323 C 390.788 32.323,389.669 31.147,388.235 29.709 C 386.802 28.271,385.576 27.094,385.510 27.094 C 385.445 27.094,386.564 28.271,387.998 29.709 M8.889 32.799 C 6.793 34.890,5.141 36.601,5.216 36.601 C 5.291 36.601,7.062 34.890,9.150 32.799 C 11.239 30.707,12.892 28.996,12.823 28.996 C 12.755 28.996,10.985 30.707,8.889 32.799 M325.338 32.222 C 323.592 33.997,322.113 35.521,322.052 35.609 C 321.991 35.697,323.462 34.274,325.320 32.445 C 327.178 30.617,328.699 29.093,328.699 29.058 C 328.699 28.846,328.195 29.320,325.338 32.222 M71.777 29.783 C 71.777 29.824,72.124 30.172,72.549 30.556 L 73.321 31.254 72.623 30.481 C 71.973 29.761,71.777 29.600,71.777 29.783 M83.657 41.418 C 85.813 43.605,87.622 45.395,87.678 45.395 C 87.734 45.395,87.735 45.350,87.681 45.296 C 87.626 45.241,86.336 43.931,84.813 42.384 C 83.290 40.838,81.526 39.093,80.892 38.506 C 80.257 37.920,81.502 39.230,83.657 41.418 M398.633 40.069 C 399.749 41.257,399.753 41.217,398.396 42.645 L 397.267 43.833 398.490 42.772 C 399.987 41.474,400.026 41.013,398.732 39.940 L 397.742 39.119 398.633 40.069 M1.055 40.463 L 0.357 41.236 1.129 40.538 C 1.849 39.887,2.011 39.691,1.827 39.691 C 1.786 39.691,1.439 40.039,1.055 40.463 M313.323 43.975 C 310.945 46.325,309.074 48.247,309.166 48.247 C 309.258 48.247,311.256 46.322,313.607 43.969 C 315.957 41.616,317.827 39.694,317.763 39.697 C 317.699 39.701,315.701 41.626,313.323 43.975 M6.894 48.128 C 9.743 51.115,13.053 54.301,12.572 53.595 C 12.394 53.333,10.483 51.408,8.325 49.317 C 5.190 46.279,4.902 46.040,6.894 48.128 M308.295 48.866 C 308.118 49.066,308.021 49.276,308.078 49.334 C 308.136 49.391,308.377 49.224,308.614 48.962 C 308.852 48.699,308.949 48.489,308.831 48.494 C 308.712 48.499,308.471 48.666,308.295 48.866 M94.949 52.525 C 96.383 53.963,97.609 55.140,97.675 55.140 C 97.740 55.140,96.621 53.963,95.187 52.525 C 93.754 51.087,92.527 49.911,92.462 49.911 C 92.397 49.911,93.516 51.087,94.949 52.525 M302.313 54.843 L 299.822 57.398 302.377 54.906 C 303.782 53.536,304.932 52.386,304.932 52.351 C 304.932 52.180,304.627 52.469,302.313 54.843 M385.497 55.318 L 383.244 57.635 385.561 55.382 C 387.714 53.289,387.987 53.001,387.815 53.001 C 387.779 53.001,386.737 54.043,385.497 55.318 M97.920 55.452 C 97.920 55.493,98.268 55.840,98.693 56.224 L 99.465 56.922 98.767 56.150 C 98.116 55.430,97.920 55.268,97.920 55.452 M101.961 59.279 C 101.961 59.530,102.677 60.207,102.805 60.078 C 102.865 60.018,102.700 59.775,102.438 59.538 C 102.175 59.301,101.961 59.184,101.961 59.279 M19.489 60.443 C 19.489 60.484,19.837 60.831,20.261 61.215 L 21.034 61.913 20.336 61.141 C 19.685 60.421,19.489 60.259,19.489 60.443 M103.149 60.460 C 103.149 60.547,109.963 67.312,110.179 67.439 C 110.432 67.589,109.942 67.075,106.745 63.832 C 103.564 60.606,103.149 60.217,103.149 60.460 M379.833 60.764 C 379.453 61.177,379.560 61.376,380.012 61.096 C 380.188 60.987,380.291 60.790,380.243 60.657 C 380.192 60.517,380.019 60.562,379.833 60.764 M375.152 65.427 C 372.038 68.589,371.825 68.838,374.213 66.524 C 375.912 64.877,377.770 63.081,378.342 62.533 C 378.913 61.985,379.336 61.491,379.281 61.436 C 379.226 61.381,377.368 63.177,375.152 65.427 M23.292 64.290 C 24.528 65.532,25.594 66.548,25.659 66.548 C 25.724 66.548,24.766 65.532,23.529 64.290 C 22.293 63.048,21.227 62.032,21.162 62.032 C 21.097 62.032,22.055 63.048,23.292 64.290 M288.770 68.061 C 287.267 69.541,285.289 71.544,284.375 72.512 C 283.461 73.480,284.718 72.295,287.168 69.878 C 289.618 67.461,291.622 65.455,291.622 65.421 C 291.622 65.269,291.350 65.522,288.770 68.061 M29.361 70.149 C 31.062 71.914,32.494 73.331,34.490 75.221 C 35.455 76.135,34.481 75.092,32.326 72.904 C 30.171 70.715,28.356 68.925,28.294 68.925 C 28.233 68.925,28.713 69.475,29.361 70.149 M116.934 73.990 C 116.934 74.031,117.282 74.378,117.706 74.762 L 118.479 75.460 117.781 74.688 C 117.130 73.968,116.934 73.806,116.934 73.990 M122.992 80.037 C 125.475 82.553,127.556 84.611,127.618 84.611 C 127.835 84.611,124.011 80.735,120.380 77.276 C 119.335 76.279,120.510 77.522,122.992 80.037 M361.086 79.205 C 357.173 83.122,357.340 82.947,357.505 82.947 C 357.598 82.947,362.384 78.184,364.567 75.920 C 364.622 75.863,364.622 75.817,364.567 75.818 C 364.513 75.819,362.946 77.343,361.086 79.205 M277.477 79.204 L 274.866 81.878 277.540 79.267 C 279.011 77.832,280.214 76.628,280.214 76.593 C 280.214 76.422,279.901 76.720,277.477 79.204 M37.304 78.015 C 37.887 78.636,38.395 79.144,38.433 79.144 C 38.612 79.144,38.423 78.931,37.374 77.946 L 36.245 76.887 37.304 78.015 M131.194 88.057 C 132.431 89.299,133.496 90.315,133.562 90.315 C 133.627 90.315,132.669 89.299,131.432 88.057 C 130.195 86.815,129.130 85.799,129.065 85.799 C 128.999 85.799,129.958 86.815,131.194 88.057 M48.366 88.889 C 49.931 90.458,51.264 91.741,51.329 91.741 C 51.395 91.741,50.168 90.458,48.604 88.889 C 47.039 87.320,45.706 86.037,45.640 86.037 C 45.575 86.037,46.801 87.320,48.366 88.889 M348.422 91.682 L 344.979 95.187 348.485 91.744 C 351.741 88.545,352.098 88.176,351.928 88.176 C 351.894 88.176,350.316 89.753,348.422 91.682 M262.971 93.472 L 259.418 97.089 262.974 93.642 C 264.931 91.747,266.579 90.169,266.639 90.137 C 266.698 90.104,266.696 90.028,266.635 89.967 C 266.575 89.906,264.926 91.484,262.971 93.472 M133.809 90.627 C 133.809 90.668,134.156 91.015,134.581 91.399 L 135.354 92.097 134.655 91.325 C 134.005 90.605,133.809 90.443,133.809 90.627 M51.582 92.157 C 51.591 92.382,52.763 93.246,52.763 93.028 C 52.763 92.871,51.822 91.979,51.657 91.979 C 51.612 91.979,51.578 92.059,51.582 92.157 M54.189 94.454 C 54.189 94.705,54.905 95.382,55.034 95.254 C 55.094 95.194,54.928 94.950,54.666 94.713 C 54.404 94.476,54.189 94.359,54.189 94.454 M55.377 95.679 C 55.377 95.840,55.787 96.239,56.448 96.723 C 56.709 96.914,56.608 96.727,56.224 96.307 C 55.520 95.537,55.377 95.431,55.377 95.679 M60.368 100.654 C 62.260 102.549,63.862 104.100,63.927 104.100 C 63.993 104.100,62.498 102.549,60.606 100.654 C 58.714 98.758,57.113 97.207,57.047 97.207 C 56.982 97.207,58.476 98.758,60.368 100.654 M337.965 101.898 C 335.810 104.085,334.528 105.435,335.116 104.897 C 337.058 103.122,342.191 97.920,342.000 97.920 C 341.936 97.920,340.121 99.710,337.965 101.898 M146.996 103.570 C 148.956 105.561,150.611 107.190,150.676 107.190 C 150.740 107.190,149.779 106.157,148.540 104.894 C 145.309 101.603,145.390 101.683,144.368 100.777 C 143.854 100.323,145.037 101.579,146.996 103.570 M251.041 105.094 C 249.179 106.945,247.687 108.491,247.725 108.529 C 247.763 108.568,249.339 107.052,251.226 105.161 C 253.114 103.270,254.606 101.724,254.542 101.725 C 254.479 101.727,252.903 103.242,251.041 105.094 M70.590 110.636 C 73.439 113.622,76.748 116.809,76.268 116.102 C 76.090 115.841,74.179 113.916,72.021 111.824 C 68.886 108.786,68.598 108.547,70.590 110.636 M246.618 109.388 C 246.245 109.764,245.985 110.117,246.041 110.173 C 246.097 110.229,246.448 109.956,246.821 109.566 C 247.698 108.651,247.512 108.488,246.618 109.388 M154.486 110.829 C 154.486 110.870,154.834 111.217,155.258 111.601 L 156.031 112.299 155.333 111.527 C 154.682 110.807,154.486 110.645,154.486 110.829 M158.645 115.033 C 160.079 116.471,161.305 117.647,161.370 117.647 C 161.436 117.647,160.316 116.471,158.883 115.033 C 157.449 113.595,156.223 112.418,156.158 112.418 C 156.092 112.418,157.212 113.595,158.645 115.033 M240.400 115.567 L 237.790 118.241 240.463 115.631 C 242.947 113.206,243.245 112.894,243.074 112.894 C 243.039 112.894,241.836 114.097,240.400 115.567 M325.000 114.617 L 324.302 115.389 325.074 114.691 C 325.499 114.307,325.847 113.960,325.847 113.919 C 325.847 113.735,325.651 113.897,325.000 114.617 M321.802 117.825 L 319.548 120.143 321.866 117.889 C 324.018 115.797,324.291 115.508,324.119 115.508 C 324.084 115.508,323.041 116.551,321.802 117.825 M161.616 117.957 C 161.616 117.999,161.950 118.348,162.359 118.732 C 162.879 119.220,163.011 119.280,162.799 118.930 C 162.538 118.498,161.616 117.741,161.616 117.957 M313.012 126.381 C 310.202 129.222,309.186 130.305,310.755 128.788 C 312.323 127.270,314.257 125.400,315.053 124.631 C 316.518 123.214,318.369 121.211,318.209 121.214 C 318.162 121.215,315.823 123.540,313.012 126.381 M165.657 121.786 C 165.657 122.037,166.372 122.714,166.501 122.586 C 166.561 122.526,166.396 122.283,166.133 122.045 C 165.871 121.808,165.657 121.691,165.657 121.786 M170.288 126.430 C 172.247 128.397,173.901 130.006,173.963 130.006 C 174.161 130.006,167.454 123.199,167.083 123.023 C 166.887 122.930,168.329 124.463,170.288 126.430 M86.746 126.500 C 88.116 127.906,89.266 129.055,89.301 129.055 C 89.472 129.055,89.182 128.751,86.809 126.437 L 84.254 123.945 86.746 126.500 M226.381 129.249 C 224.944 130.655,223.023 132.604,222.113 133.580 C 221.203 134.555,222.406 133.430,224.786 131.078 C 227.167 128.726,229.115 126.774,229.115 126.740 C 229.115 126.591,228.857 126.828,226.381 129.249 M93.057 132.660 C 94.789 134.463,95.653 135.319,98.533 138.086 C 99.961 139.458,99.098 138.522,96.616 136.006 C 94.133 133.490,92.052 131.432,91.990 131.432 C 91.928 131.432,92.408 131.984,93.057 132.660 M185.143 140.999 C 187.691 143.580,189.840 145.692,189.919 145.692 C 190.090 145.692,186.726 142.292,183.101 138.801 C 181.676 137.429,182.596 138.418,185.143 140.999 M297.858 141.216 C 295.601 143.457,293.790 145.325,293.833 145.368 C 293.876 145.411,295.722 143.624,297.936 141.398 C 302.600 136.707,302.185 137.135,302.060 137.140 C 302.005 137.142,300.114 138.976,297.858 141.216 M215.445 140.048 L 212.834 142.721 215.508 140.111 C 216.979 138.675,218.182 137.472,218.182 137.437 C 218.182 137.266,217.869 137.564,215.445 140.048 M194.534 150.208 C 195.967 151.646,197.193 152.822,197.259 152.822 C 197.324 152.822,196.205 151.646,194.771 150.208 C 193.338 148.770,192.111 147.594,192.046 147.594 C 191.981 147.594,193.100 148.770,194.534 150.208 M290.554 148.305 C 290.317 148.567,290.200 148.782,290.295 148.782 C 290.546 148.782,291.223 148.066,291.094 147.937 C 291.034 147.877,290.791 148.043,290.554 148.305 M111.701 150.980 C 113.071 152.386,114.221 153.535,114.256 153.535 C 114.428 153.535,114.138 153.231,111.765 150.917 L 109.210 148.425 111.701 150.980 M202.602 152.595 C 199.448 155.779,199.452 155.858,202.614 152.822 C 204.044 151.450,205.261 150.300,205.320 150.267 C 205.379 150.235,205.323 150.208,205.196 150.208 C 205.070 150.208,203.902 151.282,202.602 152.595 M285.557 153.357 L 282.947 156.031 285.621 153.421 C 288.104 150.996,288.403 150.683,288.231 150.683 C 288.196 150.683,286.993 151.887,285.557 153.357 M115.746 155.038 C 115.746 155.229,115.906 155.447,116.102 155.523 C 116.298 155.598,116.459 155.602,116.459 155.531 C 116.459 155.461,116.298 155.242,116.102 155.046 C 115.793 154.737,115.746 154.736,115.746 155.038 M123.827 162.923 C 125.849 164.949,127.558 166.607,127.623 166.607 C 127.689 166.607,126.087 164.949,124.064 162.923 C 122.041 160.897,120.333 159.239,120.267 159.239 C 120.202 159.239,121.804 160.897,123.827 162.923 M274.269 164.405 C 272.114 166.593,270.832 167.938,271.420 167.394 C 273.650 165.334,278.498 160.428,278.304 160.428 C 278.240 160.428,276.425 162.218,274.269 164.405 M131.452 170.272 C 131.506 170.327,132.904 171.744,134.558 173.421 C 136.212 175.098,138.084 176.950,138.718 177.536 C 139.351 178.123,137.999 176.705,135.713 174.387 C 133.426 172.069,131.510 170.172,131.454 170.172 C 131.398 170.172,131.397 170.217,131.452 170.272 M259.770 178.669 L 257.516 180.986 259.834 178.733 C 261.986 176.640,262.259 176.352,262.087 176.352 C 262.052 176.352,261.009 177.395,259.770 178.669 M253.714 184.433 C 253.338 184.825,253.131 185.140,253.253 185.132 C 253.463 185.120,254.688 183.720,254.489 183.720 C 254.438 183.720,254.089 184.040,253.714 184.433 M249.424 188.770 C 247.862 190.363,246.659 191.611,246.751 191.545 C 247.267 191.176,252.423 186.034,252.351 185.961 C 252.303 185.914,250.986 187.178,249.424 188.770 M150.208 188.829 C 151.445 190.071,152.510 191.087,152.575 191.087 C 152.641 191.087,151.682 190.071,150.446 188.829 C 149.209 187.588,148.144 186.572,148.078 186.572 C 148.013 186.572,148.971 187.588,150.208 188.829 M156.901 195.306 C 159.064 197.528,159.519 197.978,162.234 200.593 C 163.659 201.965,162.794 201.029,160.311 198.514 C 157.829 195.998,155.747 193.939,155.684 193.939 C 155.622 193.939,156.169 194.554,156.901 195.306 M235.358 202.556 C 231.440 206.478,231.612 206.298,231.780 206.298 C 231.878 206.298,235.447 202.745,238.839 199.270 C 238.894 199.214,238.894 199.169,238.839 199.169 C 238.785 199.170,237.218 200.694,235.358 202.556 M230.814 206.917 C 230.637 207.117,230.540 207.327,230.597 207.385 C 230.655 207.442,230.896 207.275,231.134 207.013 C 231.371 206.751,231.468 206.540,231.350 206.545 C 231.232 206.550,230.990 206.717,230.814 206.917 M228.522 209.149 C 228.284 209.411,228.168 209.626,228.263 209.626 C 228.514 209.626,229.191 208.910,229.062 208.781 C 229.002 208.721,228.759 208.887,228.522 209.149 M174.807 212.953 C 176.502 214.652,177.943 216.043,178.009 216.043 C 178.074 216.043,176.740 214.652,175.045 212.953 C 173.349 211.254,171.908 209.863,171.843 209.863 C 171.778 209.863,173.111 211.254,174.807 212.953 M225.891 211.824 L 225.193 212.597 225.966 211.898 C 226.390 211.515,226.738 211.167,226.738 211.126 C 226.738 210.942,226.542 211.104,225.891 211.824 M222.103 215.567 C 220.539 217.136,219.312 218.419,219.378 218.419 C 219.443 218.419,220.777 217.136,222.341 215.567 C 223.906 213.999,225.132 212.715,225.067 212.715 C 225.001 212.715,223.668 213.999,222.103 215.567 M181.105 218.994 C 181.105 219.244,181.821 219.922,181.950 219.793 C 182.010 219.733,181.844 219.490,181.582 219.253 C 181.320 219.015,181.105 218.899,181.105 218.994 M187.285 225.193 C 189.177 227.089,190.778 228.639,190.844 228.639 C 190.909 228.639,189.414 227.089,187.522 225.193 C 185.630 223.298,184.029 221.747,183.963 221.747 C 183.898 221.747,185.393 223.298,187.285 225.193 M211.881 225.604 C 209.921 227.595,208.739 228.851,209.252 228.397 C 210.749 227.071,215.744 221.985,215.549 221.985 C 215.490 221.985,213.840 223.613,211.881 225.604 M197.742 235.413 C 198.847 236.524,199.805 237.433,199.871 237.433 C 199.936 237.433,199.085 236.524,197.980 235.413 C 196.874 234.302,195.917 233.393,195.851 233.393 C 195.786 233.393,196.637 234.302,197.742 235.413 " stroke="none" fill="#f43f5e" fill-rule="evenodd"></path><path id="path3" d="M45.395 3.684 C 46.500 4.795,47.458 5.704,47.524 5.704 C 47.589 5.704,46.738 4.795,45.633 3.684 C 44.527 2.573,43.570 1.664,43.504 1.664 C 43.439 1.664,44.290 2.573,45.395 3.684 M353.172 4.416 C 353.038 4.768,352.862 4.991,352.780 4.910 C 352.622 4.751,348.680 8.753,347.731 10.036 C 347.415 10.464,347.916 10.031,348.845 9.075 C 349.774 8.118,351.308 6.612,352.254 5.728 C 353.371 4.684,353.876 4.059,353.695 3.947 C 353.521 3.839,353.324 4.016,353.172 4.416 M36.124 5.706 C 35.822 5.968,35.627 6.235,35.691 6.299 C 35.755 6.363,36.058 6.148,36.365 5.822 C 37.034 5.110,36.891 5.041,36.124 5.706 M365.419 7.368 C 366.327 8.283,367.123 9.031,367.189 9.031 C 367.254 9.031,366.565 8.283,365.657 7.368 C 364.749 6.453,363.952 5.704,363.887 5.704 C 363.821 5.704,364.511 6.453,365.419 7.368 M33.582 7.912 C 33.425 8.070,33.158 8.328,32.988 8.485 C 31.146 10.189,29.072 12.623,30.548 11.349 C 31.451 10.570,34.225 7.839,34.225 7.729 C 34.225 7.514,33.879 7.612,33.582 7.912 M58.197 16.149 C 59.552 17.463,60.765 18.538,60.892 18.538 C 61.020 18.538,60.211 17.629,59.095 16.518 C 57.979 15.407,56.953 14.498,56.816 14.498 C 56.678 14.498,56.566 14.402,56.566 14.286 C 56.566 14.169,56.378 14.003,56.150 13.916 C 55.921 13.830,56.842 14.835,58.197 16.149 M376.641 18.284 C 377.576 19.190,378.589 20.061,378.892 20.219 C 379.194 20.377,378.563 19.636,377.488 18.572 C 376.414 17.508,375.401 16.637,375.238 16.637 C 375.075 16.637,375.706 17.378,376.641 18.284 M21.502 20.261 L 20.083 21.747 21.569 20.328 C 22.386 19.548,23.054 18.880,23.054 18.843 C 23.054 18.667,22.820 18.882,21.502 20.261 M337.043 20.454 C 336.730 20.714,336.525 20.977,336.587 21.039 C 336.648 21.100,336.949 20.884,337.256 20.558 C 337.923 19.848,337.827 19.801,337.043 20.454 M380.273 21.940 C 380.273 21.981,380.621 22.329,381.046 22.713 L 381.818 23.411 381.120 22.638 C 380.469 21.918,380.273 21.756,380.273 21.940 M329.590 27.418 C 328.447 28.591,327.558 29.598,327.615 29.655 C 327.673 29.713,328.241 29.240,328.878 28.605 C 329.515 27.970,330.404 27.126,330.853 26.728 C 331.996 25.717,332.338 25.271,331.963 25.279 C 331.802 25.282,330.734 26.245,329.590 27.418 M13.938 27.394 C 13.823 27.831,13.838 27.833,14.277 27.436 C 14.826 26.939,14.826 26.936,14.396 26.936 C 14.210 26.936,14.003 27.142,13.938 27.394 M71.182 28.996 C 71.826 29.649,72.406 30.184,72.472 30.184 C 72.537 30.184,72.064 29.649,71.420 28.996 C 70.776 28.342,70.196 27.807,70.131 27.807 C 70.065 27.807,70.539 28.342,71.182 28.996 M12.953 28.283 C 13.034 28.414,12.975 28.520,12.822 28.520 C 12.578 28.520,9.745 31.281,9.745 31.518 C 9.745 31.757,10.075 31.485,11.804 29.828 C 13.044 28.639,13.520 28.045,13.235 28.045 C 12.999 28.045,12.872 28.152,12.953 28.283 M325.010 32.383 L 322.638 34.819 325.074 32.447 C 326.414 31.142,327.510 30.046,327.510 30.010 C 327.510 29.838,327.214 30.120,325.010 32.383 M9.269 31.829 C 9.269 31.993,8.604 32.839,7.791 33.710 L 6.312 35.294 7.689 33.987 C 9.107 32.642,9.649 31.910,9.407 31.669 C 9.331 31.593,9.269 31.665,9.269 31.829 M392.277 33.751 C 392.514 34.013,392.758 34.178,392.817 34.119 C 392.946 33.990,392.269 33.274,392.018 33.274 C 391.923 33.274,392.040 33.488,392.277 33.751 M77.956 35.494 C 77.956 35.538,78.865 36.440,79.976 37.497 C 81.087 38.555,81.996 39.314,81.996 39.185 C 81.996 38.903,78.442 35.413,78.156 35.413 C 78.046 35.413,77.956 35.449,77.956 35.494 M395.960 37.191 C 395.960 37.253,396.460 37.761,397.072 38.320 C 397.683 38.878,398.496 39.636,398.878 40.004 C 400.380 41.451,399.702 40.340,398.118 38.759 C 396.645 37.290,395.960 36.791,395.960 37.191 M84.611 42.187 C 85.453 43.036,86.195 43.731,86.261 43.731 C 86.326 43.731,85.691 43.036,84.848 42.187 C 84.006 41.337,83.264 40.642,83.199 40.642 C 83.133 40.642,83.769 41.337,84.611 42.187 M399.762 41.380 C 399.762 41.525,398.773 42.596,397.564 43.759 C 396.355 44.923,395.579 45.800,395.841 45.708 C 396.912 45.331,400.620 41.117,399.881 41.117 C 399.816 41.117,399.762 41.236,399.762 41.380 M311.860 45.063 C 311.683 45.263,311.586 45.473,311.643 45.531 C 311.701 45.589,311.942 45.421,312.179 45.159 C 312.417 44.897,312.514 44.686,312.396 44.691 C 312.277 44.696,312.036 44.864,311.860 45.063 M310.153 46.368 C 309.849 46.803,309.200 47.470,307.466 49.135 C 307.226 49.366,306.917 49.768,306.779 50.030 C 306.549 50.467,306.818 50.246,308.308 48.775 C 308.744 48.345,309.077 48.027,310.295 46.881 C 311.082 46.139,311.252 45.870,310.935 45.870 C 310.697 45.870,310.346 46.095,310.153 46.368 M7.249 48.723 C 8.420 49.964,9.421 51.034,9.475 51.099 C 9.528 51.165,9.457 51.004,9.318 50.743 C 9.178 50.481,8.177 49.412,7.093 48.366 L 5.121 46.465 7.249 48.723 M9.745 51.429 C 9.745 51.666,12.578 54.427,12.822 54.427 C 12.975 54.427,13.034 54.534,12.953 54.664 C 12.872 54.795,12.999 54.902,13.235 54.902 C 13.520 54.902,13.044 54.308,11.804 53.119 C 10.075 51.462,9.745 51.191,9.745 51.429 M94.593 51.887 C 94.593 51.928,94.941 52.275,95.365 52.659 L 96.138 53.357 95.440 52.585 C 94.789 51.865,94.593 51.703,94.593 51.887 M387.866 53.179 L 387.047 54.070 387.938 53.251 C 388.768 52.489,388.939 52.288,388.757 52.288 C 388.718 52.288,388.316 52.689,387.866 53.179 M13.943 55.575 C 14.006 55.815,14.210 56.011,14.396 56.011 C 14.823 56.011,14.823 55.906,14.396 55.479 C 13.940 55.023,13.806 55.052,13.943 55.575 M299.698 57.219 L 297.683 59.299 299.762 57.284 C 301.694 55.412,301.950 55.140,301.777 55.140 C 301.742 55.140,300.806 56.075,299.698 57.219 M98.871 56.000 C 98.871 56.145,100.000 57.249,101.957 59.017 C 102.509 59.515,103.020 59.864,103.093 59.791 C 103.166 59.718,102.968 59.446,102.652 59.186 C 102.337 58.926,101.973 58.608,101.842 58.478 C 101.278 57.919,100.947 57.584,100.134 56.744 C 99.332 55.917,98.871 55.645,98.871 56.000 M20.915 62.151 C 21.358 62.608,21.775 62.983,21.840 62.983 C 21.905 62.983,21.596 62.608,21.153 62.151 C 20.709 61.693,20.293 61.319,20.228 61.319 C 20.162 61.319,20.472 61.693,20.915 62.151 M378.491 62.521 C 378.360 62.646,377.570 63.392,376.734 64.179 C 375.899 64.966,375.288 65.682,375.378 65.772 C 375.518 65.912,376.157 65.379,377.247 64.214 C 377.408 64.041,377.910 63.533,378.362 63.085 C 379.059 62.394,379.180 61.861,378.491 62.521 M109.091 66.191 C 110.196 67.302,111.154 68.212,111.219 68.212 C 111.285 68.212,110.434 67.302,109.329 66.191 C 108.223 65.080,107.265 64.171,107.200 64.171 C 107.135 64.171,107.986 65.080,109.091 66.191 M287.871 68.354 C 286.666 69.565,285.680 70.639,285.680 70.740 C 285.680 70.842,285.279 71.357,284.789 71.885 L 283.898 72.846 284.908 71.907 C 285.463 71.390,285.918 70.828,285.918 70.659 C 285.918 70.489,286.004 70.351,286.110 70.351 C 286.216 70.351,287.293 69.406,288.504 68.251 C 289.715 67.096,290.561 66.152,290.384 66.152 C 290.207 66.152,289.076 67.143,287.871 68.354 M373.855 66.905 C 373.549 67.232,373.354 67.499,373.422 67.499 C 373.658 67.499,374.645 66.544,374.529 66.428 C 374.465 66.364,374.162 66.579,373.855 66.905 M29.649 70.604 C 29.944 70.939,30.184 71.301,30.184 71.409 C 30.184 71.721,34.623 76.052,34.781 75.894 C 34.915 75.760,33.197 74.011,31.280 72.332 C 30.808 71.918,30.422 71.482,30.422 71.363 C 30.422 71.244,30.128 70.887,29.768 70.570 L 29.115 69.994 29.649 70.604 M362.562 78.015 L 360.190 80.452 362.626 78.079 C 364.889 75.876,365.170 75.579,364.999 75.579 C 364.963 75.579,363.867 76.676,362.562 78.015 M121.536 78.317 C 122.694 79.440,123.697 80.304,123.764 80.237 C 123.940 80.061,120.470 76.653,119.905 76.448 C 119.643 76.352,120.377 77.193,121.536 78.317 M275.570 80.867 L 274.391 82.115 275.639 80.936 C 276.325 80.287,276.887 79.726,276.887 79.688 C 276.887 79.511,276.666 79.708,275.570 80.867 M273.119 83.091 C 272.943 83.290,272.845 83.501,272.903 83.558 C 272.960 83.616,273.202 83.448,273.439 83.186 C 273.676 82.924,273.774 82.714,273.655 82.718 C 273.537 82.723,273.296 82.891,273.119 83.091 M356.867 83.720 C 355.445 84.977,353.892 86.495,353.892 86.627 C 353.892 87.017,354.515 86.578,355.841 85.256 C 358.116 82.985,358.721 82.080,356.867 83.720 M43.494 84.210 C 43.494 84.251,43.841 84.598,44.266 84.982 L 45.039 85.680 44.341 84.908 C 43.690 84.188,43.494 84.026,43.494 84.210 M46.465 87.225 C 47.241 88.010,47.929 88.651,47.995 88.651 C 48.060 88.651,47.478 88.010,46.702 87.225 C 45.926 86.441,45.238 85.799,45.172 85.799 C 45.107 85.799,45.689 86.441,46.465 87.225 M269.429 86.456 C 269.327 86.757,269.133 86.924,268.990 86.835 C 268.836 86.741,268.801 86.787,268.902 86.951 C 268.995 87.102,268.962 87.225,268.828 87.225 C 268.605 87.225,265.241 90.480,265.241 90.696 C 265.241 90.938,265.550 90.699,266.735 89.542 C 267.438 88.856,268.413 87.944,268.901 87.515 C 269.438 87.044,269.753 86.575,269.699 86.327 C 269.627 85.994,269.577 86.018,269.429 86.456 M48.247 88.963 C 48.247 89.004,48.595 89.352,49.020 89.736 L 49.792 90.434 49.094 89.661 C 48.443 88.941,48.247 88.780,48.247 88.963 M349.956 90.378 C 349.034 91.352,348.983 91.440,349.719 90.789 C 351.278 89.406,351.338 89.345,351.232 89.240 C 351.176 89.183,350.602 89.696,349.956 90.378 M262.740 93.464 L 260.606 95.663 262.805 93.528 C 264.846 91.546,265.111 91.266,264.939 91.266 C 264.903 91.266,263.914 92.255,262.740 93.464 M51.812 92.624 C 51.812 92.728,52.374 93.374,53.060 94.060 C 53.746 94.745,54.552 95.573,54.851 95.900 C 55.341 96.436,55.853 96.680,55.853 96.378 C 55.853 96.314,55.360 95.806,54.759 95.249 C 54.157 94.692,53.248 93.831,52.739 93.336 C 52.229 92.841,51.812 92.521,51.812 92.624 M139.988 96.400 C 139.988 96.567,140.629 97.207,140.796 97.207 C 140.866 97.207,140.865 97.055,140.794 96.869 C 140.668 96.540,139.988 96.144,139.988 96.400 M142.900 99.231 C 143.913 100.210,144.856 101.010,144.995 101.010 C 145.135 101.010,144.543 100.315,143.681 99.465 C 142.819 98.616,142.003 97.920,141.868 97.920 C 141.734 97.920,141.690 97.813,141.771 97.683 C 141.851 97.552,141.724 97.447,141.488 97.449 C 141.196 97.451,141.652 98.026,142.900 99.231 M340.924 99.168 L 340.226 99.941 340.998 99.243 C 341.423 98.859,341.771 98.511,341.771 98.470 C 341.771 98.286,341.575 98.448,340.924 99.168 M58.950 99.525 C 58.954 99.623,59.248 99.908,59.603 100.159 L 60.250 100.615 59.673 99.981 C 59.068 99.314,58.938 99.232,58.950 99.525 M339.042 101.006 C 338.533 101.526,338.164 101.988,338.221 102.031 C 338.278 102.074,338.739 101.648,339.247 101.085 C 340.405 99.797,340.272 99.746,339.042 101.006 M147.831 104.219 C 148.673 105.068,149.416 105.764,149.481 105.764 C 149.547 105.764,148.911 105.068,148.069 104.219 C 147.227 103.369,146.484 102.674,146.419 102.674 C 146.354 102.674,146.989 103.369,147.831 104.219 M334.403 105.720 C 333.161 106.961,332.315 107.854,332.523 107.704 C 332.731 107.554,332.945 107.464,332.999 107.503 C 333.052 107.542,333.979 106.693,335.059 105.615 C 336.138 104.537,336.940 103.612,336.841 103.559 C 336.742 103.506,335.645 104.478,334.403 105.720 M249.827 105.907 C 249.651 106.107,249.554 106.317,249.611 106.375 C 249.669 106.432,249.910 106.265,250.147 106.003 C 250.385 105.740,250.482 105.530,250.364 105.535 C 250.245 105.540,250.004 105.707,249.827 105.907 M248.485 106.952 C 248.566 107.083,248.472 107.190,248.277 107.190 C 248.082 107.190,247.857 107.398,247.776 107.653 C 247.695 107.907,247.426 108.180,247.178 108.259 C 246.930 108.338,246.660 108.611,246.580 108.865 C 246.499 109.120,246.349 109.329,246.247 109.329 C 245.937 109.329,245.132 110.125,244.805 110.755 C 244.504 111.334,244.513 111.332,245.183 110.678 C 245.561 110.309,246.657 109.267,247.619 108.361 C 249.009 107.052,249.262 106.714,248.853 106.714 C 248.570 106.714,248.404 106.821,248.485 106.952 M330.873 108.997 C 330.697 109.196,330.599 109.407,330.657 109.465 C 330.714 109.522,330.956 109.355,331.193 109.092 C 331.430 108.830,331.528 108.620,331.409 108.625 C 331.291 108.630,331.050 108.797,330.873 108.997 M71.182 111.468 C 72.090 112.383,72.887 113.131,72.952 113.131 C 73.018 113.131,72.328 112.383,71.420 111.468 C 70.512 110.553,69.716 109.804,69.650 109.804 C 69.585 109.804,70.274 110.553,71.182 111.468 M324.770 115.092 L 323.351 116.578 324.837 115.159 C 326.216 113.841,326.431 113.607,326.255 113.607 C 326.218 113.607,325.550 114.275,324.770 115.092 M73.440 113.941 C 73.440 114.153,76.740 117.409,76.955 117.409 C 77.081 117.409,77.320 117.572,77.485 117.772 C 77.651 117.971,77.832 118.088,77.889 118.031 C 77.946 117.974,77.487 117.464,76.869 116.896 C 76.251 116.329,75.276 115.410,74.703 114.854 C 73.729 113.912,73.440 113.703,73.440 113.941 M238.496 117.231 L 236.839 118.954 238.562 117.297 C 239.510 116.385,240.285 115.610,240.285 115.574 C 240.285 115.399,240.036 115.631,238.496 117.231 M160.073 116.222 C 160.310 116.485,160.553 116.650,160.613 116.590 C 160.742 116.462,160.064 115.746,159.814 115.746 C 159.719 115.746,159.835 115.960,160.073 116.222 M162.092 118.007 C 162.092 118.142,163.362 119.404,165.140 121.034 C 166.203 122.009,166.847 122.279,165.892 121.349 C 165.566 121.032,164.855 120.302,164.311 119.727 C 163.353 118.713,162.092 117.735,162.092 118.007 M84.967 125.015 C 85.611 125.668,86.191 126.203,86.257 126.203 C 86.322 126.203,85.849 125.668,85.205 125.015 C 84.561 124.361,83.981 123.827,83.916 123.827 C 83.850 123.827,84.324 124.361,84.967 125.015 M315.491 124.301 C 315.239 124.562,314.245 125.524,313.281 126.440 C 311.910 127.743,311.639 128.105,312.033 128.105 C 312.310 128.105,312.537 128.012,312.537 127.899 C 312.537 127.655,314.866 125.253,315.105 125.251 C 315.196 125.250,315.453 124.929,315.675 124.538 C 316.151 123.703,316.114 123.656,315.491 124.301 M170.885 126.797 C 172.122 128.039,173.187 129.055,173.253 129.055 C 173.318 129.055,172.360 128.039,171.123 126.797 C 169.886 125.556,168.821 124.540,168.756 124.540 C 168.690 124.540,169.649 125.556,170.885 126.797 M228.079 127.273 C 227.883 127.469,227.648 127.629,227.556 127.629 C 227.465 127.629,226.493 128.538,225.397 129.649 C 222.628 132.456,223.297 132.188,226.286 129.293 C 227.636 127.986,228.672 126.916,228.588 126.916 C 228.504 126.916,228.275 127.077,228.079 127.273 M222.564 132.917 L 221.866 133.690 222.638 132.992 C 223.063 132.608,223.411 132.260,223.411 132.219 C 223.411 132.036,223.214 132.197,222.564 132.917 M93.438 133.294 C 94.294 134.502,98.398 138.639,98.570 138.467 C 98.653 138.384,97.926 137.571,96.954 136.660 C 94.924 134.759,95.128 134.962,93.855 133.571 C 93.166 132.817,93.042 132.735,93.438 133.294 M183.957 139.492 C 185.330 140.815,186.640 142.075,186.869 142.292 C 187.097 142.508,187.285 142.599,187.285 142.492 C 187.285 142.328,184.836 139.902,182.767 138.016 C 180.971 136.379,181.822 137.435,183.957 139.492 M299.461 139.929 L 297.207 142.246 299.525 139.993 C 301.677 137.900,301.950 137.611,301.778 137.611 C 301.743 137.611,300.700 138.654,299.461 139.929 M214.008 141.236 L 213.310 142.008 214.082 141.310 C 214.507 140.926,214.854 140.579,214.854 140.538 C 214.854 140.354,214.658 140.516,214.008 141.236 M211.087 143.934 C 210.911 144.134,210.813 144.345,210.871 144.402 C 210.928 144.460,211.170 144.292,211.407 144.030 C 211.644 143.768,211.742 143.557,211.623 143.562 C 211.505 143.567,211.264 143.735,211.087 143.934 M294.019 145.395 C 292.171 147.049,290.671 148.508,290.671 148.654 C 290.671 148.969,291.174 148.729,291.704 148.161 C 292.517 147.289,292.568 147.238,293.761 146.103 C 295.820 144.145,296.015 143.610,294.019 145.395 M109.685 149.257 C 111.119 150.695,112.345 151.872,112.410 151.872 C 112.476 151.872,111.356 150.695,109.923 149.257 C 108.489 147.819,107.263 146.643,107.198 146.643 C 107.132 146.643,108.252 147.819,109.685 149.257 M206.610 147.948 C 206.454 148.117,206.392 148.321,206.471 148.400 C 206.550 148.479,206.494 148.544,206.345 148.544 C 206.095 148.544,203.209 151.289,203.209 151.527 C 203.209 151.783,203.515 151.536,205.244 149.889 C 206.252 148.929,207.035 148.031,206.984 147.892 C 206.925 147.729,206.793 147.749,206.610 147.948 M197.267 152.704 C 197.710 153.161,198.127 153.535,198.192 153.535 C 198.257 153.535,197.948 153.161,197.504 152.704 C 197.061 152.246,196.645 151.872,196.579 151.872 C 196.514 151.872,196.823 152.246,197.267 152.704 M201.438 153.493 L 200.025 155.080 201.278 153.892 C 202.309 152.914,203.209 151.816,202.920 151.889 C 202.883 151.898,202.216 152.620,201.438 153.493 M116.221 155.849 C 116.221 155.955,116.490 156.306,116.818 156.630 C 117.146 156.954,117.547 157.360,117.709 157.533 C 118.614 158.496,120.328 159.952,120.557 159.952 C 120.654 159.952,119.986 159.231,119.072 158.348 C 116.667 156.025,116.221 155.635,116.221 155.849 M120.974 160.289 C 120.974 160.540,121.690 161.217,121.819 161.088 C 121.879 161.028,121.713 160.785,121.451 160.548 C 121.189 160.311,120.974 160.194,120.974 160.289 M276.404 162.507 L 274.866 164.112 276.471 162.574 C 277.961 161.145,278.184 160.903,278.009 160.903 C 277.972 160.903,277.250 161.625,276.404 162.507 M271.500 167.439 C 270.477 168.419,269.774 169.222,269.938 169.222 C 270.213 169.222,273.559 166.036,273.559 165.774 C 273.559 165.508,273.274 165.738,271.500 167.439 M268.866 169.926 C 268.626 170.310,268.634 170.370,268.910 170.264 C 269.269 170.126,269.618 169.459,269.331 169.459 C 269.236 169.459,269.027 169.669,268.866 169.926 M133.333 172.377 C 133.333 172.413,134.162 173.242,135.175 174.219 L 137.017 175.995 135.241 174.153 C 133.591 172.443,133.333 172.203,133.333 172.377 M261.549 177.124 L 260.131 178.610 261.616 177.191 C 262.996 175.873,263.210 175.639,263.035 175.639 C 262.998 175.639,262.330 176.307,261.549 177.124 M137.166 176.528 C 137.854 177.400,140.502 179.930,141.122 180.306 C 141.479 180.522,140.728 179.668,139.454 178.407 C 137.322 176.297,136.365 175.511,137.166 176.528 M250.155 188.354 C 248.864 189.596,247.933 190.612,248.087 190.612 C 248.240 190.612,248.366 190.505,248.366 190.374 C 248.366 190.244,248.486 190.137,248.632 190.137 C 248.895 190.137,252.644 186.487,252.644 186.230 C 252.644 185.976,252.495 186.104,250.155 188.354 M148.425 187.285 C 148.936 187.807,149.407 188.235,149.473 188.235 C 149.538 188.235,149.174 187.807,148.663 187.285 C 148.153 186.762,147.681 186.334,147.616 186.334 C 147.551 186.334,147.915 186.762,148.425 187.285 M156.625 195.202 C 156.625 195.243,156.973 195.591,157.398 195.975 L 158.170 196.673 157.472 195.900 C 156.821 195.180,156.625 195.019,156.625 195.202 M158.289 197.167 C 158.289 197.333,161.909 200.931,162.709 201.560 C 164.065 202.626,163.622 202.070,161.441 199.968 C 158.615 197.245,158.289 196.955,158.289 197.167 M236.597 201.604 L 233.987 204.278 236.661 201.668 C 239.144 199.243,239.442 198.930,239.271 198.930 C 239.236 198.930,238.033 200.134,236.597 201.604 M230.417 207.784 C 227.564 210.383,227.171 210.814,227.655 210.814 C 227.911 210.814,230.303 208.436,230.303 208.182 C 230.303 208.078,230.490 207.931,230.719 207.853 C 231.087 207.729,232.145 206.536,231.888 206.536 C 231.833 206.536,231.171 207.097,230.417 207.784 M173.975 212.359 C 175.080 213.470,176.038 214.379,176.104 214.379 C 176.169 214.379,175.318 213.470,174.213 212.359 C 173.107 211.248,172.150 210.339,172.084 210.339 C 172.019 210.339,172.870 211.248,173.975 212.359 M179.204 217.608 C 179.204 217.805,179.387 218.006,181.130 219.727 C 181.792 220.380,182.558 221.156,182.832 221.450 C 183.106 221.744,183.472 221.985,183.645 221.985 C 183.819 221.985,183.311 221.370,182.516 220.618 C 181.722 219.866,180.651 218.842,180.138 218.341 C 179.624 217.841,179.204 217.511,179.204 217.608 M184.670 222.797 C 184.670 223.047,185.386 223.725,185.515 223.596 C 185.575 223.536,185.409 223.293,185.147 223.055 C 184.885 222.818,184.670 222.702,184.670 222.797 M212.945 224.777 L 211.646 226.144 213.012 224.845 C 214.282 223.638,214.488 223.411,214.312 223.411 C 214.274 223.411,213.659 224.026,212.945 224.777 M185.866 224.064 C 185.870 224.162,186.164 224.448,186.520 224.699 L 187.166 225.155 186.590 224.520 C 185.984 223.854,185.854 223.771,185.866 224.064 M208.402 229.350 C 207.310 230.394,206.555 231.249,206.723 231.251 C 206.891 231.252,207.883 230.398,208.927 229.352 C 211.392 226.884,210.981 226.882,208.402 229.350 M198.155 236.004 C 199.832 237.735,199.885 237.768,200.294 237.322 C 200.695 236.884,200.695 236.879,200.284 237.189 C 199.899 237.480,199.681 237.346,198.145 235.871 L 196.435 234.229 198.155 236.004 " stroke="none" fill="#f43f5e" fill-rule="evenodd"></path><path id="path4" d="M358.408 0.373 C 358.408 0.626,359.142 1.246,359.279 1.109 C 359.354 1.034,359.249 0.808,359.047 0.605 C 358.670 0.228,358.408 0.133,358.408 0.373 M29.100 12.894 L 28.402 13.666 29.174 12.968 C 29.599 12.584,29.947 12.236,29.947 12.196 C 29.947 12.012,29.750 12.174,29.100 12.894 M61.343 19.275 C 61.739 19.681,62.121 19.955,62.192 19.884 C 62.354 19.721,61.186 18.538,60.863 18.538 C 60.730 18.538,60.946 18.870,61.343 19.275 M378.847 20.324 C 378.847 20.559,380.105 21.638,380.232 21.511 C 380.333 21.410,379.989 21.042,379.262 20.470 C 379.034 20.291,378.847 20.225,378.847 20.324 M62.983 20.989 C 62.983 21.030,63.330 21.378,63.755 21.762 L 64.528 22.460 63.830 21.687 C 63.179 20.967,62.983 20.806,62.983 20.989 M103.738 60.753 C 103.949 60.965,104.194 61.066,104.283 60.978 C 104.371 60.890,104.285 60.718,104.093 60.597 C 103.531 60.242,103.319 60.335,103.738 60.753 M379.323 61.557 C 379.019 61.820,378.835 62.099,378.912 62.176 C 378.990 62.254,379.293 62.094,379.587 61.821 C 380.282 61.173,380.042 60.933,379.323 61.557 M27.332 68.286 C 27.332 68.327,27.680 68.674,28.105 69.058 L 28.877 69.756 28.179 68.984 C 27.528 68.264,27.332 68.102,27.332 68.286 M123.827 80.443 C 123.827 80.677,125.290 82.038,125.411 81.917 C 125.481 81.847,125.203 81.462,124.793 81.061 C 124.080 80.364,123.827 80.202,123.827 80.443 M358.548 81.973 C 358.222 82.333,358.203 82.461,358.452 82.605 C 358.623 82.704,358.688 82.702,358.596 82.599 C 358.503 82.497,358.664 82.216,358.952 81.975 C 359.241 81.734,359.360 81.533,359.217 81.529 C 359.074 81.525,358.773 81.724,358.548 81.973 M127.392 84.254 C 127.835 84.712,128.251 85.086,128.317 85.086 C 128.382 85.086,128.073 84.712,127.629 84.254 C 127.186 83.797,126.769 83.422,126.704 83.422 C 126.639 83.422,126.948 83.797,127.392 84.254 M145.455 101.619 C 145.455 101.797,146.092 102.436,146.269 102.436 C 146.572 102.436,146.376 102.057,145.930 101.778 C 145.668 101.615,145.455 101.543,145.455 101.619 M337.290 102.823 C 336.983 103.150,336.785 103.471,336.849 103.536 C 336.963 103.650,338.206 102.524,338.206 102.306 C 338.206 102.047,337.807 102.272,337.290 102.823 M166.400 122.341 C 166.975 123.074,167.558 123.351,167.558 122.892 C 167.558 122.770,167.342 122.602,167.079 122.518 C 166.816 122.435,166.662 122.267,166.737 122.146 C 166.812 122.024,166.693 121.925,166.473 121.925 C 166.127 121.925,166.117 121.981,166.400 122.341 M316.489 123.264 C 316.046 123.872,316.046 123.873,316.548 123.604 C 316.826 123.456,317.053 123.178,317.053 122.986 C 317.053 122.526,317.012 122.547,316.489 123.264 M187.221 142.531 C 187.162 142.636,187.420 143.011,187.794 143.366 C 188.167 143.720,188.473 143.934,188.473 143.841 C 188.472 143.533,187.329 142.337,187.221 142.531 M295.169 144.169 L 294.593 144.785 295.364 144.347 C 295.788 144.107,296.136 143.829,296.136 143.731 C 296.139 143.381,295.736 143.563,295.169 144.169 M273.797 165.095 C 273.305 165.583,273.145 165.852,273.405 165.754 C 273.830 165.593,274.985 164.558,274.985 164.339 C 274.985 164.067,274.562 164.336,273.797 165.095 M254.412 184.017 L 253.714 184.789 254.486 184.091 C 255.206 183.440,255.368 183.244,255.184 183.244 C 255.143 183.244,254.796 183.592,254.412 184.017 M252.842 185.621 C 252.624 185.861,252.500 186.110,252.565 186.175 C 252.684 186.294,253.595 185.489,253.595 185.264 C 253.595 185.023,253.227 185.198,252.842 185.621 M232.442 205.807 C 232.442 205.929,232.228 206.096,231.967 206.179 C 231.705 206.262,231.491 206.427,231.491 206.545 C 231.491 206.805,232.212 206.554,232.620 206.150 C 232.979 205.796,233.001 205.585,232.680 205.585 C 232.549 205.585,232.442 205.685,232.442 205.807 M210.983 226.761 C 210.618 227.141,210.426 227.451,210.557 227.451 C 210.835 227.451,211.765 226.501,211.765 226.218 C 211.765 225.956,211.741 225.973,210.983 226.761 " stroke="none" fill="#f43f5e" fill-rule="evenodd"></path></g></svg>
